# xmcd
#
# Track frame offsets:
#	150
#	17243
#	33142
#	51631
#	71294
#	94663
#	110985
#	129386
#	151290
#	166911
#	185594
#	205977
#	228560
#	233059
#	250284
#	268630
#	288595
#	310187
#	327055
#
# Disc length: 4584 seconds
#
# Revision: 0
# Processed by: cddbd v1.5.2PL0 Copyright (c) Steve Scherf et al.
# Submitted via: EasyCDDAExtractor 11.9.9.666
#
DISCID=0f11e613
DTITLE=Various Artist - Terrorizer: Fear Candy 52B: The Unsigned Edition
DYEAR=1900
DGENRE=
TTITLE0=Xerath - False History
TTITLE1=Pica Fierce - Reptile
TTITLE2=Planet Rain - In absentia
TTITLE3=Liklukt - The Haunted Ship
TTITLE4=Dawn of Chaos - False Messiah
TTITLE5=Reth - Decathexis
TTITLE6=Cerebral Bore - Entombed in Butchered Bodies
TTITLE7=Aghast - Mind Atrophy
TTITLE8=Denounce - Fire Will Follow
TTITLE9=Strychnine - In My Apocalypse
TTITLE10=Eclipse Eternal - Evolution Beyond the Species
TTITLE11=Immanis - Bleeding (Terrorizer edit)
TTITLE12=Tinner - Brann Baskern
TTITLE13=Hekz - Another Time
TTITLE14=Mammoth - Souls on Fire
TTITLE15=Galvanic - Legacy Chain
TTITLE16=Mask of Judas - Forsaken
TTITLE17=Burned in Effigy - Six Days
TTITLE18=Inreign - Fight for Your Life
EXTD=
EXTT0=
EXTT1=
EXTT2=
EXTT3=
EXTT4=
EXTT5=
EXTT6=
EXTT7=
EXTT8=
EXTT9=
EXTT10=
EXTT11=
EXTT12=
EXTT13=
EXTT14=
EXTT15=
EXTT16=
EXTT17=
EXTT18=
PLAYORDER=
